<?xml version="1.0" encoding="utf-8"?>
<svg x="0pt" y="0pt" width="128pt" height="128pt" viewBox="0 0 128 128"
    xmlns="http://www.w3.org/2000/svg"
    xmlns:xlink="http://www.w3.org/1999/xlink">
    <g id="Layer 1">
        <path id="Path" style="fill:#00f434;fill-opacity:1;fill-rule:evenodd;opacity:1;stroke:none;" d="M23.4833,29.6701 C23.4833,29.6701,72.0596,30.7332,72.0596,30.7332 C72.0596,30.7332,117.84,31.7351,117.84,31.7351 C117.84,31.7351,116.543,111.359,116.543,111.359 C116.543,111.359,71.2369,119.731,71.2369,119.731 C71.2369,119.731,23.5465,112.336,23.5465,112.336 C23.5465,112.336,23.4833,29.6701,23.4833,29.6701 z"/>
        <path id="Path 1" style="fill:#000000;fill-opacity:1;fill-rule:nonzero;opacity:1;stroke:none;" d="M69.013,1.30957 C40.8386,1.30957,12.3355,8.92135,12.3355,18.3128 C12.3355,18.3128,12.3355,35.7298,12.3355,35.7298 C9.66598,38.2916,6.75843,41.5619,4.46299,45.4443 C2.09954,49.4401,0.999996,53.5265,0.999996,57.3749 C0.999996,62.8046,3.25009,67.7639,7.76162,71.3289 C11.9784,74.6616,17.7709,76.5206,24.5552,76.5206 C35.6639,76.5206,49.4366,71.5386,63.3452,59.9764 C63.3452,59.9764,63.3452,66.4943,63.3452,66.4943 C63.3452,71.1929,67.1539,74.9959,71.8468,74.9959 C76.5397,74.9959,80.3485,71.1929,80.3485,66.4943 C80.3485,66.4943,80.3485,57.987,80.3485,57.987 C80.3485,54.8584,82.8819,52.3193,86.0162,52.3193 C89.1505,52.3193,91.684,54.8584,91.684,57.987 C91.684,57.987,91.684,74.9903,91.684,74.9903 C91.684,78.1189,94.2174,80.658,97.3517,80.658 C100.486,80.658,103.019,78.1189,103.019,74.9903 C103.019,74.9903,103.019,52.3193,103.019,52.3193 C103.019,49.1907,105.553,46.6515,108.687,46.6515 C111.821,46.6515,114.355,49.1907,114.355,52.3193 C114.355,52.3193,114.355,55.1645,114.355,55.1645 C114.355,55.1645,114.361,104.723,114.361,104.723 C113.992,106.271,99.4771,114.664,69.1773,114.664 C38.5885,114.664,24.028,106.271,23.671,104.763 C23.671,104.763,23.671,82.1033,23.671,82.1033 C20.2647,82.0693,15.7588,81.4288,12.3355,80.1819 C12.3355,80.1819,12.3355,104.757,12.3355,104.757 C12.3355,116.064,35.0065,126,69.1773,126 C102.844,126,125.69,116.11,125.69,104.763 C125.69,104.763,125.69,18.3128,125.69,18.3128 C125.69,8.92135,97.1873,1.30957,69.013,1.30957 z M9.34292,48.3292 C10.2384,46.8102,11.2699,45.4273,12.3355,44.1124 C12.3355,44.1124,12.3355,67.6052,12.3355,67.6052 C12.3355,67.6052,11.2756,66.8854,11.2756,66.8854 C5.77223,62.5326,5.04676,55.5953,9.34292,48.3292 z M23.671,70.8188 C23.671,70.8188,23.671,33.0433,23.671,33.0433 C41.6434,42.0833,61.4975,34.6756,63.1808,52.5573 C47.7079,66.755,33.7369,71.2156,23.671,70.8188 z M69.455,28.4071 C57.8192,28.4071,27.0093,26.1966,27.0093,20.5232 C27.0093,14.7931,55.2687,11.4038,69.455,11.4038 C84.0098,11.4038,112.025,14.8555,112.025,20.5232 C112.025,26.2533,81.363,28.4071,69.455,28.4071 z"/>
    </g>
</svg>
