<?xml version="1.0" encoding="utf-8"?>
<svg x="0pt" y="0pt" width="128pt" height="128pt" viewBox="0 0 128 128"
  xmlns="http://www.w3.org/2000/svg"
  xmlns:xlink="http://www.w3.org/1999/xlink">
  <g id="Layer 1">
    <path id="Path" style="fill:#08ec00;fill-opacity:1;fill-rule:evenodd;opacity:1;stroke:none;" d="M17.3167,53.1949 C17.3167,53.1949,64.8645,4.12853,64.8645,4.12853 C64.8645,4.12853,112.412,53.1949,112.412,53.1949 C112.412,53.1949,112.412,121.465,112.412,121.465 C112.412,121.465,82.6438,121.465,82.6438,121.465 C82.6438,121.465,82.3206,76.549,82.3206,76.549 C82.3206,76.549,47.6596,76.6452,47.6596,76.6452 C47.6596,76.6452,47.3677,121.465,47.3677,121.465 C47.3677,121.465,17.3167,121.465,17.3167,121.465 C17.3167,121.465,17.3167,53.1949,17.3167,53.1949 z"/>
    <path id="Path 3" style="fill:#000000;fill-opacity:1;fill-rule:evenodd;opacity:1;stroke:none;" d="M115.912,62.246 C115.912,83.69,115.912,103.134,115.912,124.578 C81.8357,124.578,47.7598,124.578,13.6838,124.578 C13.6838,103.134,13.6838,83.69,13.6838,62.246 C11.4808,64.449,9.27781,66.652,7.0748,68.855 C5.87021,67.6504,4.66563,64.4458,3.46104,63.2412 C23.9066,42.7957,44.3522,22.3501,64.7978,1.90451 C85.2433,22.3501,105.689,42.7957,126.134,63.2412 C124.93,64.4458,123.725,67.6504,122.521,68.855 C120.318,66.652,118.115,64.449,115.912,62.246 C115.912,62.246,115.912,62.246,115.912,62.246 z M85.2433,117.467 C93.7623,117.467,100.281,117.467,108.8,117.467 C108.8,96.0226,108.8,77.5786,108.8,56.1346 C93.4661,40.8004,80.1319,27.4662,64.7978,12.132 C49.4636,27.4662,36.1294,40.8004,20.7952,56.1346 C20.7952,77.5786,20.7952,96.0226,20.7952,117.467 C29.3142,117.467,35.8332,117.467,44.3522,117.467 C44.3522,102.132,44.3522,88.7982,44.3522,73.464 C57.9826,73.464,71.613,73.464,85.2433,73.464 C85.2433,88.7982,85.2433,102.132,85.2433,117.467 z M78.1319,81.1428 C67.9092,81.1428,61.6864,81.1428,51.4636,81.1428 C51.4636,94.3949,51.4636,103.647,51.4636,116.899 C61.6864,116.899,67.9092,116.899,78.1319,116.899 C78.1319,103.647,78.1319,94.3949,78.1319,81.1428 z"/>
  </g>
</svg>
